PathFileType	4	(X/Y/Z)	RAnkleTrial14.trc
DataRate	CameraRate	NumFrames	NumMarkers	Units	OrigDataRate	OrigDataStartFrame	OrigNumFrames
50	100	5	33	m	100	84	       951
Frame#	Time	L_Toe			R_Toe			R_Shoulder			L_Heel			Neck			R_Heel			L_Shank_Lateral			R_Shank_Lateral			L_Midfoot_Superior			L_Elbow			R_Midfoot_Lateral			R_Midfoot_Superior			L_Shoulder			R_Thigh_Lateral			R_Elbow			Sacral			L_Thigh_Superior			R_Patella			R_Wrist			R_Shank_Superior			L_Wrist			R_Shank_Inferior			R_Thigh_Superior			R_Thigh_Inferior			L_Asis			L_Shank_Inferior			L_Midfoot_Lateral			Sternum			L_Shank_Superior			R_Asis			L_Patella			L_Thigh_Lateral			L_Thigh_Inferior			
		X1	Y1	Z1	X2	Y2	Z2	X3	Y3	Z3	X4	Y4	Z4	X5	Y5	Z5	X6	Y6	Z6	X7	Y7	Z7	X8	Y8	Z8	X9	Y9	Z9	X10	Y10	Z10	X11	Y11	Z11	X12	Y12	Z12	X13	Y13	Z13	X14	Y14	Z14	X15	Y15	Z15	X16	Y16	Z16	X17	Y17	Z17	X18	Y18	Z18	X19	Y19	Z19	X20	Y20	Z20	X21	Y21	Z21	X22	Y22	Z22	X23	Y23	Z23	X24	Y24	Z24	X25	Y25	Z25	X26	Y26	Z26	X27	Y27	Z27	X28	Y28	Z28	X29	Y29	Z29	X30	Y30	Z30	X31	Y31	Z31	X32	Y32	Z32	X33	Y33	Z33

84	   1.660	    0.70629964659997	    0.04148129185743	    0.37682686391816	    1.09922496953445	    0.07950443149963	    0.60847028418267	    0.46512303172517	    1.43979288993684	    0.51577372001983	    0.41521707462826	    0.03338290199857	    0.42709423891408	    0.42875064963214	    1.46324801501523	    0.36953832108679	    0.82533859899152	    0.17562365288764	    0.67859898452545	    0.48585289333462	    0.32538719351281	    0.29392300215778	    0.77158686263302	    0.43847926942541	    0.69027733131098	    0.58664336568035	    0.09000078211505	    0.39023651905310	    0.36478909851961	    1.11780774232382	    0.10135661143737	    0.92152509235399	    0.14717608994215	    0.71268446947413	    1.00316923025960	    0.17393197641516	    0.63453690524320	    0.47153971921486	    1.43270536074533	    0.22360867974685	    0.65475647255543	    0.72975207378444	    0.63099351916405	    0.56967394692969	    1.13357550404221	    0.64888254421407	    0.42745866962731	    0.96887632652668	    0.37890557388519	    0.67245644304017	    0.73573834250899	    0.29890930812455	    0.79811209649522	    0.60536034505838	    0.58532027425403	    0.65224896332797	    1.27205121510353	    0.45743282826345	    0.82273942090567	    0.50258426703759	    0.62483479215315	    0.53735774572766	    1.01144232144305	   -0.05862729556848	    0.89182548796760	    0.34037915163996	    0.64809049157752	    0.70920398010743	    0.80000329900584	    0.56130494564190	    0.75191780297734	    0.69633209162235	    0.56871840088582	    0.62559129111267	    0.96484834024427	    0.27235459131909	    0.55297651652160	    0.22927998635361	    0.36479740031649	    0.49084997508437	    0.02732042021356	    0.35941127527581	    0.57215408250475	    1.37721787319011	    0.37746567546102	    0.57924929014971	    0.38055333844871	    0.33285842675827	    0.57232167469604	    0.99736419123681	    0.52718543290888	    0.62487496947838	    0.48861215491578	    0.34305558578354	    0.57265208569910	    0.65574671390184	    0.25523818122885	    0.65123621346161	    0.60662142029864	    0.32019188592583
85	   1.680	    0.70631095082605	    0.04146874893435	    0.37682519538892	    1.09901301616925	    0.07977193846050	    0.60243680917472	    0.46531481678389	    1.43985623767173	    0.51584383639013	    0.41522202202511	    0.03338500543177	    0.42709521923745	    0.42894194473603	    1.46327632551187	    0.36960658062297	    0.82671568921012	    0.17576151097757	    0.67919632259870	    0.48596907241954	    0.32538014527905	    0.29397468402517	    0.77280281623969	    0.43868256972356	    0.68964688810240	    0.58664959068312	    0.08999492275289	    0.39025198819436	    0.36497666692790	    1.11781259440634	    0.10141833721464	    0.92342951389944	    0.14652309858945	    0.71092261278827	    1.00369643148180	    0.17406877903008	    0.63164606073108	    0.47174496055474	    1.43269920561762	    0.22369190451842	    0.65546978686111	    0.72980088100594	    0.63063276397782	    0.56980511774039	    1.13366213361995	    0.64904186011877	    0.42755919258315	    0.96892080122149	    0.37906394818797	    0.67250664087121	    0.73574065854481	    0.29895851444792	    0.79878478934324	    0.60544725682870	    0.58445101910893	    0.65242529884816	    1.27205691315969	    0.45754667234501	    0.82365626829666	    0.50269860287302	    0.62385107820846	    0.53752914002807	    1.01143547006451	   -0.05857107305349	    0.89277845654341	    0.34044596826392	    0.64690913405470	    0.70968021033591	    0.80007494050204	    0.56079852721293	    0.75248380235646	    0.69641820659597	    0.56806443625234	    0.62556700540260	    0.96486184868746	    0.27236995781929	    0.55303707435875	    0.22927767990694	    0.36488121527246	    0.49085348039746	    0.02732468408137	    0.35941251582431	    0.57234660784069	    1.37723612988993	    0.37754848265781	    0.57935382607011	    0.38058654154493	    0.33292344987500	    0.57260502848803	    0.99736294220768	    0.52721181138395	    0.62493892866979	    0.48860883662170	    0.34316899260550	    0.57268870101216	    0.65573794136032	    0.25531089381312	    0.65133092906582	    0.60663579729819	    0.32027902508134
86	   1.700	    0.70632143269623	    0.04146107130072	    0.37682432282398	    1.09887408640849	    0.08033690027784	    0.59635844964800	    0.46547461333126	    1.43990306814785	    0.51591186848939	    0.41522687924553	    0.03338569487793	    0.42709518013307	    0.42911890429183	    1.46329545625931	    0.36966420603809	    0.82816189173617	    0.17578697435053	    0.67968008695408	    0.48608031449403	    0.32536846158304	    0.29402118433282	    0.77396045187999	    0.43884857412909	    0.68898127792385	    0.58665419885096	    0.08998860977050	    0.39026784550854	    0.36516310545245	    1.11780288055632	    0.10147198218872	    0.92536358058209	    0.14583140751631	    0.70904343726942	    1.00424196473265	    0.17433831683629	    0.62873498008363	    0.47194497348327	    1.43267868508490	    0.22377234942377	    0.65612284324877	    0.72982896628266	    0.63027073631162	    0.56986089951402	    1.13371625174678	    0.64920371688750	    0.42763131402806	    0.96894810898222	    0.37922434325550	    0.67255186613225	    0.73574374429004	    0.29902432278243	    0.79942204574990	    0.60554576426544	    0.58360008854016	    0.65256035886791	    1.27203144567501	    0.45767799213138	    0.82453906191626	    0.50280688940728	    0.62287743171820	    0.53771016569420	    1.01140242477644	   -0.05850266586306	    0.89371273729667	    0.34051564762729	    0.64572162874004	    0.71010497328896	    0.80015037464469	    0.56032759774370	    0.75300774180438	    0.69651342497614	    0.56743378501403	    0.62554123799212	    0.96487423028970	    0.27240341488520	    0.55309434692202	    0.22927613344160	    0.36496355014668	    0.49085558982547	    0.02732846613731	    0.35941241796221	    0.57251724350251	    1.37723401259149	    0.37764094018953	    0.57946150461640	    0.38062953187287	    0.33297092649883	    0.57283774106019	    0.99734985347034	    0.52725451903696	    0.62498865185035	    0.48860672025840	    0.34328961122282	    0.57272708065422	    0.65572964424330	    0.25538686186285	    0.65140872316207	    0.60664708920653	    0.32037397219821
87	   1.720	    0.70633060085418	    0.04145736349718	    0.37682421313383	    1.09879066726084	    0.08124675789107	    0.59022911935044	    0.46560131714891	    1.43993776204517	    0.51597727297254	    0.41523150688752	    0.03338522798927	    0.42709414251591	    0.42927950392752	    1.46330955517655	    0.36971179282435	    0.82967213079759	    0.17568003999033	    0.68005953337635	    0.48618357177243	    0.32535216341570	    0.29406025354116	    0.77505230435428	    0.43898609308266	    0.68829028194899	    0.58665731020840	    0.08998246004886	    0.39028329131943	    0.36534651407593	    1.11778435527498	    0.10152030577468	    0.92732395028579	    0.14510457212838	    0.70705599385942	    1.00478618954650	    0.17475828645381	    0.62581090932318	    0.47213766258412	    1.43265104499220	    0.22384898899312	    0.65671628607549	    0.72984321452323	    0.62990898072869	    0.56985643067161	    1.13374757603218	    0.64936519800586	    0.42767550696614	    0.96896493837211	    0.37938498860802	    0.67258907900238	    0.73574715982369	    0.29910755646250	    0.80002111423548	    0.60565709255374	    0.58276648492196	    0.65265958589385	    1.27198752192904	    0.45782254671369	    0.82538246949282	    0.50291065526802	    0.62191379379164	    0.53790014263229	    1.01135248573327	   -0.05842064079076	    0.89461730746183	    0.34059158175617	    0.64453749257760	    0.71047812666872	    0.80023557837428	    0.55989001109478	    0.75348857986224	    0.69662101381607	    0.56682647603799	    0.62551502029388	    0.96488516116423	    0.27245154391106	    0.55314654585909	    0.22927590626700	    0.36504173746137	    0.49085680541232	    0.02733188981846	    0.35941138517737	    0.57266545688195	    1.37721930777448	    0.37774078978192	    0.57957009138467	    0.38068355896175	    0.33299717135649	    0.57302114903750	    0.99732925374576	    0.52730971121256	    0.62502197065450	    0.48860618689461	    0.34341450491825	    0.57276418695102	    0.65572236406998	    0.25546393390768	    0.65146574496005	    0.60665544304986	    0.32047694531728
88	   1.740	    0.70633812242690	    0.04145680624528	    0.37682480478918	    1.09873172282816	    0.08256633217329	    0.58401131354322	    0.46569444743110	    1.43996541005652	    0.51603925521999	    0.41523565506702	    0.03338377589983	    0.42709235762918	    0.42942247824010	    1.46332333521207	    0.36975028570119	    0.83124706749494	    0.17541751009069	    0.68036351780007	    0.48627555488397	    0.32533230802465	    0.29409013089961	    0.77607678666143	    0.43910996919296	    0.68759040299012	    0.58665902034937	    0.08997725362702	    0.39029737710412	    0.36552546942879	    1.11776488184106	    0.10156425017915	    0.92931273005084	    0.14433843759745	    0.70496197164815	    1.00530418820520	    0.17535341776970	    0.62287525127553	    0.47232215542160	    1.43262435301754	    0.22392077430552	    0.65725440437033	    0.72985346807551	    0.62954862371832	    0.56980476714879	    1.13376610993921	    0.64952365719959	    0.42769272193115	    0.96897888866086	    0.37954241637499	    0.67261377739542	    0.73575117559403	    0.29920472429249	    0.80058106408328	    0.60578282616394	    0.58194858939181	    0.65272816651846	    1.27193746172328	    0.45797640025913	    0.82618453829463	    0.50301250138522	    0.62095887809320	    0.53809689975553	    1.01129519264562	   -0.05832617756985	    0.89548283080871	    0.34067756100027	    0.64336760540187	    0.71080187651953	    0.80033632594420	    0.55947866047942	    0.75392706840927	    0.69674426083481	    0.56623931979283	    0.62548525517465	    0.96489508965900	    0.27250870684559	    0.55319160506080	    0.22927698065834	    0.36511236383902	    0.49085771085677	    0.02733487662395	    0.35940983349678	    0.57279130417774	    1.37720005892610	    0.37784541562603	    0.57967553677529	    0.38074801181870	    0.33300084075537	    0.57315723031849	    0.99730652596692	    0.52737111712121	    0.62503927559879	    0.48860738232750	    0.34353820726457	    0.57279515088718	    0.65571650717527	    0.25553916893089	    0.65150033706823	    0.60666224123565	    0.32058478474172
